<?xml version="1.0" encoding="UTF-8" standalone="no"?> <svg width="64" height="64" viewBox="0 0 64 64" fill="none" xmlns="http://www.w3.org/2000/svg">
<path d="M17.56 2H4C2.89543 2 2 2.89543 2 4V12C2 13.1046 2.89543 14 4 14H17.56C18.6646 14 19.56 13.1046 19.56 12V4C19.56 2.89543 18.6646 2 17.56 2Z" fill="black"/>
<path d="M38.78 2H25.22C24.1154 2 23.22 2.89543 23.22 4V12C23.22 13.1046 24.1154 14 25.22 14H38.78C39.8845 14 40.78 13.1046 40.78 12V4C40.78 2.89543 39.8845 2 38.78 2Z" fill="black"/>
<path d="M59.9999 2H46.4399C45.3354 2 44.4399 2.89543 44.4399 4V12C44.4399 13.1046 45.3354 14 46.4399 14H59.9999C61.1045 14 61.9999 13.1046 61.9999 12V4C61.9999 2.89543 61.1045 2 59.9999 2Z" fill="black"/>
<path d="M17.56 17.8501H4C2.89543 17.8501 2 18.7455 2 19.8501V27.8501C2 28.9547 2.89543 29.8501 4 29.8501H17.56C18.6646 29.8501 19.56 28.9547 19.56 27.8501V19.8501C19.56 18.7455 18.6646 17.8501 17.56 17.8501Z" fill="black"/>
<path d="M38.78 17.8501H25.22C24.1154 17.8501 23.22 18.7455 23.22 19.8501V27.8501C23.22 28.9547 24.1154 29.8501 25.22 29.8501H38.78C39.8845 29.8501 40.78 28.9547 40.78 27.8501V19.8501C40.78 18.7455 39.8845 17.8501 38.78 17.8501Z" fill="black"/>
<path d="M59.9999 17.8501H46.4399C45.3354 17.8501 44.4399 18.7455 44.4399 19.8501V27.8501C44.4399 28.9547 45.3354 29.8501 46.4399 29.8501H59.9999C61.1045 29.8501 61.9999 28.9547 61.9999 27.8501V19.8501C61.9999 18.7455 61.1045 17.8501 59.9999 17.8501Z" fill="black"/>
<path d="M17.56 34.96H4C2.89543 34.96 2 35.8554 2 36.96V44.96C2 46.0645 2.89543 46.96 4 46.96H17.56C18.6646 46.96 19.56 46.0645 19.56 44.96V36.96C19.56 35.8554 18.6646 34.96 17.56 34.96Z" fill="black"/>
<path d="M38.78 34.96H25.22C24.1154 34.96 23.22 35.8554 23.22 36.96V44.96C23.22 46.0645 24.1154 46.96 25.22 46.96H38.78C39.8845 46.96 40.78 46.0645 40.78 44.96V36.96C40.78 35.8554 39.8845 34.96 38.78 34.96Z" fill="black"/>
<path d="M38.78 50H25.22C24.1154 50 23.22 50.8954 23.22 52V60C23.22 61.1046 24.1154 62 25.22 62H38.78C39.8845 62 40.78 61.1046 40.78 60V52C40.78 50.8954 39.8845 50 38.78 50Z" fill="black"/>
<path d="M59.9999 34.96H46.4399C45.3354 34.96 44.4399 35.8554 44.4399 36.96V44.96C44.4399 46.0645 45.3354 46.96 46.4399 46.96H59.9999C61.1045 46.96 61.9999 46.0645 61.9999 44.96V36.96C61.9999 35.8554 61.1045 34.96 59.9999 34.96Z" fill="black"/>
</svg>
